<?xml version="1.0" encoding="UTF-8"?>
<svg width="20px" height="41px" viewBox="0 0 20 41" version="1.1" xmlns="http://www.w3.org/2000/svg" xmlns:xlink="http://www.w3.org/1999/xlink">
    <!-- Generator: Sketch 52.6 (67491) - http://www.bohemiancoding.com/sketch -->
    <title>Arrow</title>
    <desc>Created with Sketch.</desc>
    <g id="Page-1" stroke="none" stroke-width="1" fill="none" fill-rule="evenodd">
        <g id="Desktop-HD" transform="translate(-710.000000, -892.000000)" fill="#282828">
            <g id="Intro" transform="translate(58.000000, 58.000000)">
                <g id="Arrow" transform="translate(631.000000, 823.000000)">
                    <g transform="translate(31.000000, 13.000000)" id="Line">
                        <path d="M-1.13040031,19.3051974 L-1.13040031,-4.08642117e-14 C-1.13040031,-0.828427125 -0.458827437,-1.5 0.369599688,-1.5 C1.19802681,-1.5 1.86959969,-0.828427125 1.86959969,-4.08482029e-14 L1.86959969,19.3051974 L8.73622885,19.3051974 C9.36217228,19.3051974 9.86959969,19.8126248 9.86959969,20.4385683 C9.86959969,20.6145185 9.82863389,20.7880524 9.74994654,20.9454271 L1.38344152,37.6784372 C1.10351111,38.238298 0.4227258,38.4652264 -0.137135025,38.185296 C-0.356473339,38.0756269 -0.534324716,37.8977755 -0.643993873,37.6784372 L-9.0104989,20.9454271 C-9.29042931,20.3855663 -9.06350087,19.704781 -8.50364005,19.4248506 C-8.34626535,19.3461632 -8.17273146,19.3051974 -7.9967812,19.3051974 L-1.13040031,19.3051974 Z" fill-rule="nonzero"></path>
                    </g>
                </g>
            </g>
        </g>
    </g>
</svg>