<?xml version="1.0" encoding="UTF-8"?>
<svg width="25px" height="27px" viewBox="0 0 25 27" version="1.1" xmlns="http://www.w3.org/2000/svg" xmlns:xlink="http://www.w3.org/1999/xlink">
    <!-- Generator: Sketch 52.6 (67491) - http://www.bohemiancoding.com/sketch -->
    <title>GitHub Icon</title>
    <desc>Created with Sketch.</desc>
    <g id="Page-1" stroke="none" stroke-width="1" fill="none" fill-rule="evenodd" stroke-linecap="round" stroke-linejoin="round">
        <g id="Desktop-HD" transform="translate(-436.000000, -1367.000000)" stroke="#000000">
            <g id="What-I-do" transform="translate(57.000000, 1038.000000)">
                <g id="Psyched" transform="translate(2.000000, 311.000000)">
                    <g id="Icons" transform="translate(330.000000, 11.000000)">
                        <g id="GitHub-Icon" transform="translate(40.000000, 0.000000)">
                            <g transform="translate(8.115942, 7.536232)" id="github">
                                <g stroke-width="2">
                                    <path d="M8.11594203,21.4492754 C2.31884058,23.1884058 2.31884058,18.5507246 0,17.9710145 M16.2318841,24.9275362 L16.2318841,20.4405797 C16.3198645,19.3221998 15.9228883,18.2199572 15.142029,17.4144928 C18.7826087,17.0086957 22.6086957,15.6289855 22.6086957,9.29855072 C22.6083981,7.67979943 21.9857299,6.12312906 20.8695652,4.95072464 C21.3980938,3.53450034 21.3607235,1.96910072 20.7652174,0.579710145 C20.7652174,0.579710145 19.3971014,0.173913043 16.2318841,2.29565217 C13.5745033,1.5754455 10.7733228,1.5754455 8.11594203,2.29565217 C4.95072464,0.173913043 3.5826087,0.579710145 3.5826087,0.579710145 C2.98710261,1.96910072 2.94973232,3.53450034 3.47826087,4.95072464 C2.35377057,6.13182572 1.73046105,7.70256571 1.73913043,9.33333333 C1.73913043,15.6173913 5.56521739,16.9971014 9.2057971,17.4492754 C8.43434154,18.2464505 8.03811174,19.3339748 8.11594203,20.4405797 L8.11594203,24.9275362" id="Shape"></path>
                                </g>
                            </g>
                        </g>
                    </g>
                </g>
            </g>
        </g>
    </g>
</svg>