<?xml version="1.0" encoding="UTF-8"?>
<svg width="41px" height="45px" viewBox="0 0 41 45" version="1.1" xmlns="http://www.w3.org/2000/svg" xmlns:xlink="http://www.w3.org/1999/xlink">
    <!-- Generator: Sketch 52.6 (67491) - http://www.bohemiancoding.com/sketch -->
    <title>git-icon-black</title>
    <desc>Created with Sketch.</desc>
    <g id="Symbols" stroke="none" stroke-width="1" fill="none" fill-rule="evenodd" stroke-linecap="round" stroke-linejoin="round">
        <g id="GitHub-Icon" transform="translate(-13.000000, -12.000000)" stroke="#282828" stroke-width="2">
            <g id="git-icon-black" transform="translate(14.000000, 13.000000)">
                <g id="github">
                    <path d="M14,37 C4,40 4,32 0,31 M28,43 L28,35.26 C28.1517663,33.3307946 27.4669823,31.4294262 26.12,30.04 C32.4,29.34 39,26.96 39,16.04 C38.9994867,13.247654 37.9253842,10.5623976 36,8.54 C36.9117117,6.09701309 36.847248,3.39669875 35.82,1 C35.82,1 33.46,0.3 28,3.96 C23.4160181,2.71764349 18.5839819,2.71764349 14,3.96 C8.54,0.3 6.18,1 6.18,1 C5.152752,3.39669875 5.08828826,6.09701309 6,8.54 C4.06025423,10.5773994 2.9850453,13.2869258 3,16.1 C3,26.94 9.6,29.32 15.88,30.1 C14.5492392,31.4751271 13.8657428,33.3511066 14,35.26 L14,43" id="Shape"></path>
                </g>
            </g>
        </g>
    </g>
</svg>